<svg width="33" height="32" viewBox="0 0 33 32" fill="none" xmlns="http://www.w3.org/2000/svg">
<path fill-rule="evenodd" clip-rule="evenodd" d="M29.9128 4.75001H6.89182L4.92486 1.22434C4.70408 0.8286 4.28641 0.583344 3.83325 0.583344H1.33325C0.642896 0.583344 0.083252 1.14299 0.083252 1.83334C0.083252 2.5237 0.642896 3.08334 1.33325 3.08334H3.09925L5.04041 6.56276L9.51719 16.4681L9.52179 16.4783L9.91609 17.3507L5.42136 22.1451C5.09818 22.4898 4.99701 22.9873 5.15989 23.4309C5.32278 23.8745 5.72187 24.1883 6.19135 24.2419L10.2882 24.7101C15.4127 25.2958 20.5872 25.2958 25.7117 24.7101L29.8085 24.2419C30.4944 24.1635 30.9869 23.544 30.9085 22.8581C30.8301 22.1722 30.2106 21.6797 29.5247 21.7581L25.4278 22.2263C20.492 22.7904 15.5079 22.7904 10.5721 22.2263L8.94624 22.0405L12.2452 18.5216C12.2771 18.4876 12.3067 18.4522 12.3341 18.4157L13.5888 18.579C15.347 18.8078 17.1243 18.8526 18.8918 18.7128C23.0142 18.3868 26.8349 16.4252 29.5024 13.2651L30.4658 12.1238C30.4982 12.0854 30.5282 12.0452 30.5557 12.0032L32.3513 9.26683C33.6241 7.32722 32.2327 4.75001 29.9128 4.75001ZM12.427 15.9068C12.1514 15.8709 11.9136 15.6958 11.7976 15.4434L11.7953 15.4385L8.09448 7.25001H29.9128C30.2442 7.25001 30.443 7.61818 30.2612 7.89527L28.5069 10.5687L27.592 11.6525C25.3553 14.3023 22.1515 15.9472 18.6947 16.2206C17.1004 16.3467 15.4973 16.3062 13.9114 16.0999L12.427 15.9068Z" fill="black"/>
<path d="M8.83325 26.8333C7.45254 26.8333 6.33325 27.9526 6.33325 29.3333C6.33325 30.7141 7.45254 31.8333 8.83325 31.8333C10.214 31.8333 11.3333 30.7141 11.3333 29.3333C11.3333 27.9526 10.214 26.8333 8.83325 26.8333Z" fill="black"/>
<path d="M24.6666 29.3333C24.6666 27.9526 25.7859 26.8333 27.1666 26.8333C28.5473 26.8333 29.6666 27.9526 29.6666 29.3333C29.6666 30.7141 28.5473 31.8333 27.1666 31.8333C25.7859 31.8333 24.6666 30.7141 24.6666 29.3333Z" fill="black"/>
</svg>
