<svg width="54" height="54" viewBox="0 0 54 54" fill="none" xmlns="http://www.w3.org/2000/svg">
<rect x="4.72559" y="5.3606" width="43.4859" height="2.84095" rx="1.42047" fill="white" stroke="#08050D"/>
<path d="M25.8775 11.8545C26.2004 11.604 26.6631 11.604 26.986 11.8545L38.5732 20.8425C39.1875 21.319 38.8806 22.3298 38.019 22.3298H14.8446C13.9829 22.3298 13.676 21.319 14.2903 20.8425L25.8775 11.8545Z" fill="white" stroke="#08050D"/>
<path fill-rule="evenodd" clip-rule="evenodd" d="M26.9363 8.66163C26.8311 8.58131 26.6997 8.53359 26.5572 8.53359C26.212 8.53359 25.9322 8.81341 25.9322 9.15859V11.1649C25.9322 11.5101 26.212 11.7899 26.5572 11.7899C26.9024 11.7899 27.1822 11.5101 27.1822 11.1649V9.67735C27.3815 9.61364 27.5744 9.5302 27.7577 9.42786C28.2279 9.16541 28.619 8.7878 28.8919 8.33275C29.1647 7.87771 29.3098 7.36114 29.3126 6.83465C29.3155 6.30815 29.1759 5.79015 28.908 5.33236C28.64 4.87458 28.2531 4.49303 27.7857 4.22582C27.3183 3.95862 26.7868 3.8151 26.2444 3.80961C25.702 3.80412 25.1676 3.93684 24.6946 4.19452C24.3836 4.36395 24.1062 4.58351 23.8738 4.84258C23.6747 5.06455 23.7616 5.40127 24.0198 5.55061C24.2685 5.6945 24.5827 5.60715 24.7911 5.40927C24.9181 5.28866 25.0614 5.18423 25.2176 5.0991C25.5276 4.93024 25.8778 4.84326 26.2333 4.84686C26.5887 4.85046 26.937 4.94451 27.2433 5.11962C27.5496 5.29472 27.8032 5.54476 27.9788 5.84475C28.1544 6.14475 28.2458 6.48421 28.2439 6.82924C28.2421 7.17426 28.147 7.51278 27.9682 7.81098C27.7894 8.10918 27.5331 8.35664 27.225 8.52863C27.1321 8.58044 27.0356 8.62485 26.9363 8.66163Z" fill="#08050D"/>
<path fill-rule="evenodd" clip-rule="evenodd" d="M17.4081 15.5192C18.6 15.5192 19.5889 16.384 20.1655 17.4272C20.5052 18.0418 20.9403 18.6102 21.4614 19.1114C22.8431 20.4399 24.7171 21.1863 26.6711 21.1863C28.625 21.1863 30.499 20.4399 31.8807 19.1114C32.4016 18.6105 32.8365 18.0422 33.1762 17.428C33.7532 16.3844 34.7425 15.5192 35.9349 15.5192C36.2957 15.5192 36.6389 15.5949 36.9494 15.7312C37.9097 16.153 38.9692 16.7165 39.9458 17.0991C39.9966 17.119 40.0471 17.1403 40.0973 17.163L47.7352 20.6202C49.3075 21.3319 49.967 23.1654 49.2081 24.7155L46.9357 29.3575C46.1768 30.9076 44.287 31.5873 42.7147 30.8756L41.7702 30.4481C40.2188 29.7458 38.46 30.8803 38.46 32.5833V46.3986C38.46 48.1245 37.0609 49.5236 35.335 49.5236H18.009C16.2831 49.5236 14.884 48.1245 14.884 46.3986V32.643C14.884 30.9224 13.0918 29.7882 11.5369 30.5249L10.7517 30.8968C9.19199 31.6357 7.29031 30.9891 6.50419 29.4526L4.14722 24.846C3.3611 23.3095 3.98823 21.465 5.54796 20.7261L13.1178 17.1401C13.2042 17.0992 13.2918 17.0624 13.3801 17.0299C14.3773 16.6627 15.4671 16.1109 16.4501 15.7073C16.7455 15.586 17.069 15.5192 17.4081 15.5192Z" fill="white"/>
<path d="M20.1655 17.4272L20.6031 17.1853L20.1655 17.4272ZM21.4614 19.1114L21.808 18.751V18.751L21.4614 19.1114ZM31.8807 19.1114L32.2272 19.4718V19.4718L31.8807 19.1114ZM33.1762 17.428L33.6137 17.6699V17.6699L33.1762 17.428ZM40.0973 17.163L40.3035 16.7075L40.3035 16.7075L40.0973 17.163ZM47.7352 20.6202L47.9414 20.1647L47.7352 20.6202ZM49.2081 24.7155L48.7591 24.4957L49.2081 24.7155ZM46.9357 29.3575L46.4866 29.1376V29.1376L46.9357 29.3575ZM42.7147 30.8756L42.9209 30.4201H42.9209L42.7147 30.8756ZM10.7517 30.8968L10.9658 31.3487L10.7517 30.8968ZM6.50419 29.4526L6.05906 29.6804H6.05907L6.50419 29.4526ZM4.14722 24.846L4.59234 24.6182L4.14722 24.846ZM5.54796 20.7261L5.3339 20.2742H5.3339L5.54796 20.7261ZM13.1178 17.1401L13.3318 17.592L13.1178 17.1401ZM16.4501 15.7073L16.2602 15.2448L16.4501 15.7073ZM11.5369 30.5249L11.7509 30.9767L11.5369 30.5249ZM41.7702 30.4481L41.564 30.9036L41.7702 30.4481ZM20.6031 17.1853C19.9809 16.0596 18.8554 15.0192 17.4081 15.0192V16.0192C18.3446 16.0192 19.1969 16.7084 19.7279 17.6691L20.6031 17.1853ZM21.808 18.751C21.3228 18.2845 20.9185 17.7559 20.6031 17.1853L19.7279 17.6691C20.0919 18.3276 20.5577 18.936 21.1149 19.4718L21.808 18.751ZM26.6711 20.6863C24.8435 20.6863 23.0945 19.988 21.808 18.751L21.1149 19.4718C22.5917 20.8918 24.5906 21.6863 26.6711 21.6863V20.6863ZM31.5341 18.751C30.2476 19.988 28.4986 20.6863 26.6711 20.6863V21.6863C28.7515 21.6863 30.7504 20.8918 32.2272 19.4718L31.5341 18.751ZM32.7386 17.186C32.4232 17.7563 32.0191 18.2847 31.5341 18.751L32.2272 19.4718C32.7842 18.9362 33.2498 18.3281 33.6137 17.6699L32.7386 17.186ZM35.9349 15.0192C34.4871 15.0192 33.3612 16.06 32.7386 17.186L33.6137 17.6699C34.1451 16.7088 34.9979 16.0192 35.9349 16.0192V15.0192ZM37.1505 15.2734C36.7778 15.1098 36.3663 15.0192 35.9349 15.0192V16.0192C36.2252 16.0192 36.5 16.08 36.7483 16.189L37.1505 15.2734ZM39.7634 17.5646C39.8062 17.5814 39.8488 17.5994 39.8912 17.6185L40.3035 16.7075C40.2454 16.6812 40.187 16.6566 40.1281 16.6335L39.7634 17.5646ZM39.8911 17.6185L47.529 21.0757L47.9414 20.1647L40.3035 16.7075L39.8911 17.6185ZM47.529 21.0757C48.8444 21.6711 49.3939 23.1989 48.7591 24.4957L49.6572 24.9354C50.5401 23.1319 49.7707 20.9927 47.9414 20.1647L47.529 21.0757ZM48.7591 24.4957L46.4866 29.1376L47.3847 29.5773L49.6572 24.9354L48.7591 24.4957ZM46.4866 29.1376C45.8466 30.445 44.247 31.0203 42.9209 30.4201L42.5085 31.3311C44.3271 32.1542 46.5071 31.3702 47.3847 29.5773L46.4866 29.1376ZM42.9209 30.4201L41.9764 29.9926L41.564 30.9036L42.5085 31.3311L42.9209 30.4201ZM38.96 46.3986V32.5833H37.96V46.3986H38.96ZM35.335 50.0236C37.337 50.0236 38.96 48.4006 38.96 46.3986H37.96C37.96 47.8483 36.7848 49.0236 35.335 49.0236V50.0236ZM18.009 50.0236H35.335V49.0236H18.009V50.0236ZM14.384 46.3986C14.384 48.4006 16.007 50.0236 18.009 50.0236V49.0236C16.5593 49.0236 15.384 47.8483 15.384 46.3986H14.384ZM14.384 32.643V46.3986H15.384V32.643H14.384ZM10.9658 31.3487L11.7509 30.9767L11.3228 30.073L10.5377 30.4449L10.9658 31.3487ZM6.05907 29.6804C6.96826 31.4574 9.16186 32.2032 10.9658 31.3487L10.5377 30.4449C9.22212 31.0681 7.61235 30.5208 6.94931 29.2249L6.05907 29.6804ZM3.70209 25.0737L6.05906 29.6804L6.94931 29.2249L4.59234 24.6182L3.70209 25.0737ZM5.3339 20.2742C3.51922 21.1339 2.78747 23.2861 3.70209 25.0737L4.59234 24.6182C3.93472 23.3329 4.45725 21.7961 5.76202 21.178L5.3339 20.2742ZM12.9037 16.6883L5.3339 20.2742L5.76202 21.178L13.3318 17.592L12.9037 16.6883ZM13.2073 16.5607C13.105 16.5984 13.0037 16.6409 12.9037 16.6883L13.3318 17.592C13.4048 17.5574 13.4785 17.5265 13.5529 17.4991L13.2073 16.5607ZM17.4081 15.0192C17.0027 15.0192 16.6148 15.0992 16.2602 15.2448L16.64 16.1698C16.8762 16.0729 17.1352 16.0192 17.4081 16.0192V15.0192ZM13.5529 17.4991C14.0696 17.3088 14.6055 17.0725 15.1258 16.8381C15.6519 16.601 16.1587 16.3674 16.64 16.1698L16.2602 15.2448C15.7585 15.4507 15.2289 15.6948 14.715 15.9264C14.1954 16.1605 13.6878 16.3838 13.2073 16.5607L13.5529 17.4991ZM15.384 32.643C15.384 30.5553 13.2095 29.1792 11.3228 30.073L11.7509 30.9767C12.9741 30.3973 14.384 31.2894 14.384 32.643H15.384ZM41.9764 29.9926C40.094 29.1405 37.96 30.517 37.96 32.5833H38.96C38.96 31.2436 40.3436 30.3512 41.564 30.9036L41.9764 29.9926ZM36.7483 16.189C37.2193 16.3959 37.7132 16.6368 38.2265 16.8813C38.7342 17.123 39.2571 17.3663 39.7634 17.5646L40.1281 16.6335C39.6578 16.4493 39.1627 16.2195 38.6564 15.9784C38.1558 15.74 37.6398 15.4884 37.1505 15.2734L36.7483 16.189Z" fill="#08050D"/>
<rect x="19.147" y="29.4681" width="4.82314" height="5.31369" rx="1.25" fill="white" stroke="#08050D"/>
</svg>
