<svg width="90" height="30" viewBox="0 0 90 30" fill="none" xmlns="http://www.w3.org/2000/svg">
<path d="M20.349 11.87C19.97 12.2513 19.6798 12.7115 19.499 13.2177C19.3182 13.724 19.2513 14.2639 19.303 14.799L19.285 14.781C19.3382 15.4109 19.2532 16.0447 19.0361 16.6384C18.819 17.232 18.475 17.7711 18.0281 18.2181C17.5811 18.665 17.042 19.0091 16.4483 19.2261C15.8547 19.4432 15.2208 19.5282 14.591 19.475L14.609 19.493C13.8556 19.4229 13.0989 19.5868 12.442 19.9625C11.7852 20.3382 11.2602 20.9073 10.9387 21.5923C10.6172 22.2773 10.5147 23.0447 10.6453 23.7901C10.776 24.5354 11.1333 25.2223 11.6686 25.7571C12.2039 26.2919 12.8911 26.6486 13.6365 26.7785C14.382 26.9085 15.1493 26.8053 15.834 26.4832C16.5187 26.161 17.0873 25.6356 17.4624 24.9784C17.8375 24.3212 18.0008 23.5644 17.93 22.811L17.949 22.829C17.8958 22.1992 17.9807 21.5653 18.1978 20.9716C18.4149 20.378 18.759 19.8389 19.2059 19.3919C19.6529 18.945 20.192 18.6009 20.7856 18.3839C21.3793 18.1668 22.0131 18.0818 22.643 18.135L22.624 18.117C23.2394 18.1723 23.8589 18.0714 24.425 17.8236C24.991 17.5758 25.4854 17.1891 25.8622 16.6994C26.239 16.2097 26.4862 15.6327 26.5806 15.0221C26.6751 14.4114 26.6139 13.7868 26.4027 13.206C26.1915 12.6253 25.8371 12.1073 25.3724 11.7C24.9077 11.2927 24.3477 11.0093 23.7443 10.8761C23.1409 10.7429 22.5136 10.7641 21.9206 10.9378C21.3276 11.1116 20.7881 11.4322 20.352 11.87H20.349Z" fill="#FDFCFF"/>
<path d="M12.9718 17.135L12.9528 17.117C13.4881 17.1709 14.0287 17.1052 14.5356 16.9246C15.0424 16.744 15.5028 16.4531 15.8834 16.0728C16.2639 15.6925 16.5553 15.2323 16.7362 14.7256C16.9172 14.2189 16.9833 13.6784 16.9298 13.143L16.9488 13.161C16.8956 12.5311 16.9806 11.8973 17.1976 11.3036C17.4147 10.71 17.7588 10.1709 18.2057 9.72392C18.6527 9.27702 19.1918 8.93292 19.7854 8.71592C20.3791 8.49878 21.0129 8.41385 21.6428 8.46702L21.6238 8.44902C22.3773 8.51982 23.1342 8.35638 23.7914 7.98112C24.4487 7.60586 24.9741 7.03699 25.2961 6.35212C25.6181 5.66726 25.721 4.89973 25.5908 4.15422C25.4606 3.40871 25.1036 2.72153 24.5684 2.18639C24.0333 1.65126 23.3461 1.29422 22.6006 1.164C21.8551 1.03377 21.0876 1.13668 20.4027 1.4587C19.7178 1.78071 19.149 2.30616 18.7737 2.96337C18.3984 3.62057 18.235 4.37754 18.3058 5.13102L18.2878 5.11202C18.3411 5.74191 18.2563 6.37585 18.0393 6.96957C17.8223 7.56329 17.4782 8.10248 17.0313 8.54952C16.5843 8.99642 16.0451 9.34052 15.4514 9.55752C14.8576 9.77452 14.2237 9.85932 13.5938 9.80602L13.6118 9.82502C13.0765 9.77112 12.5358 9.83682 12.029 10.0174C11.5222 10.1979 11.0618 10.4889 10.6812 10.8692C10.3006 11.2495 10.0093 11.7097 9.82834 12.2164C9.64744 12.7231 9.58134 13.2636 9.63484 13.799L9.61684 13.781C9.66984 14.4108 9.58474 15.0446 9.36764 15.6382C9.15044 16.2317 8.80644 16.7708 8.35954 17.2177C7.9126 17.6646 7.37356 18.0086 6.78 18.2258C6.18644 18.4429 5.55265 18.528 4.92284 18.475L4.94084 18.493C4.18736 18.4222 3.43039 18.5856 2.77318 18.9609C2.11598 19.3362 1.59053 19.905 1.26852 20.5899C0.946502 21.2748 0.843582 22.0423 0.973812 22.7878C1.10404 23.5333 1.46108 24.2205 1.99621 24.7556C2.53135 25.2908 3.21853 25.6478 3.96404 25.778C4.70955 25.9082 5.47708 25.8053 6.16195 25.4833C6.84681 25.1613 7.41568 24.6359 7.79094 23.9787C8.16624 23.3214 8.32964 22.5645 8.25884 21.811L8.27784 21.829C8.22464 21.1991 8.30964 20.5653 8.52674 19.9716C8.74374 19.378 9.08784 18.8389 9.53474 18.3919C9.98174 17.945 10.5208 17.6009 11.1144 17.3839C11.7081 17.1668 12.3419 17.0818 12.9718 17.135Z" fill="#FDFCFF"/>
<path d="M6.2699 15.128C6.64892 14.7468 6.9391 14.2866 7.11974 13.7803C7.30038 13.274 7.36702 12.734 7.3149 12.199L7.33389 12.217C7.28069 11.587 7.36565 10.9529 7.58286 10.3591C7.80007 9.76526 8.1443 9.22606 8.5915 8.77906C9.0387 8.33208 9.578 7.98809 10.1719 7.77114C10.7658 7.55418 11.3999 7.46948 12.0299 7.52296L12.0109 7.50496C12.7641 7.57553 13.5208 7.41204 14.1777 7.0368C14.8346 6.66157 15.3597 6.09284 15.6816 5.40819C16.0034 4.72353 16.1062 3.95628 15.976 3.21105C15.8458 2.46582 15.4888 1.7789 14.9539 1.24396C14.419 0.709023 13.732 0.352103 12.9868 0.221883C12.2416 0.0916527 11.4743 0.194473 10.7897 0.516293C10.105 0.838113 9.5363 1.36328 9.1611 2.02018C8.7858 2.67708 8.6223 3.43374 8.6929 4.18696L8.6749 4.16896C8.7281 4.79881 8.6431 5.43268 8.426 6.02632C8.2089 6.61996 7.86492 7.15907 7.41796 7.60603C6.97101 8.05299 6.43189 8.39702 5.83825 8.61406C5.24461 8.83116 4.61075 8.91616 3.9809 8.86296L3.9989 8.88096C3.38347 8.82576 2.76406 8.92686 2.19808 9.17476C1.6321 9.42266 1.13785 9.80946 0.761139 10.2993C0.384429 10.789 0.137449 11.366 0.0430689 11.9766C-0.0513011 12.5873 0.0099889 13.2119 0.221259 13.7925C0.432529 14.3732 0.786959 14.8911 1.25169 15.2983C1.71642 15.7056 2.27642 15.9889 2.8798 16.1221C3.48317 16.2552 4.1104 16.2339 4.70337 16.0602C5.29633 15.8864 5.83583 15.5658 6.27189 15.128H6.2699Z" fill="#FDFCFF"/>
<path d="M28.33 25.68H30.57V27H26.62V19.98H28.33V25.68ZM31.0456 24.2C31.0456 23.6267 31.1523 23.1233 31.3656 22.69C31.5856 22.2567 31.8823 21.9233 32.2556 21.69C32.629 21.4567 33.0456 21.34 33.5056 21.34C33.899 21.34 34.2423 21.42 34.5356 21.58C34.8356 21.74 35.0656 21.95 35.2256 22.21V21.42H36.9356V27H35.2256V26.21C35.059 26.47 34.8256 26.68 34.5256 26.84C34.2323 27 33.889 27.08 33.4956 27.08C33.0423 27.08 32.629 26.9633 32.2556 26.73C31.8823 26.49 31.5856 26.1533 31.3656 25.72C31.1523 25.28 31.0456 24.7733 31.0456 24.2ZM35.2256 24.21C35.2256 23.7833 35.1056 23.4467 34.8656 23.2C34.6323 22.9533 34.3456 22.83 34.0056 22.83C33.6656 22.83 33.3756 22.9533 33.1356 23.2C32.9023 23.44 32.7856 23.7733 32.7856 24.2C32.7856 24.6267 32.9023 24.9667 33.1356 25.22C33.3756 25.4667 33.6656 25.59 34.0056 25.59C34.3456 25.59 34.6323 25.4667 34.8656 25.22C35.1056 24.9733 35.2256 24.6367 35.2256 24.21ZM43.6827 21.42V27H41.9727V26.24C41.7994 26.4867 41.5627 26.6867 41.2627 26.84C40.9694 26.9867 40.6427 27.06 40.2827 27.06C39.8561 27.06 39.4794 26.9667 39.1527 26.78C38.8261 26.5867 38.5727 26.31 38.3927 25.95C38.2127 25.59 38.1227 25.1667 38.1227 24.68V21.42H39.8227V24.45C39.8227 24.8233 39.9194 25.1133 40.1127 25.32C40.3061 25.5267 40.5661 25.63 40.8927 25.63C41.2261 25.63 41.4894 25.5267 41.6827 25.32C41.8761 25.1133 41.9727 24.8233 41.9727 24.45V21.42H43.6827ZM48.311 21.36C48.9643 21.36 49.4843 21.5733 49.871 22C50.2643 22.42 50.461 23 50.461 23.74V27H48.761V23.97C48.761 23.5967 48.6643 23.3067 48.471 23.1C48.2777 22.8933 48.0177 22.79 47.691 22.79C47.3643 22.79 47.1043 22.8933 46.911 23.1C46.7177 23.3067 46.621 23.5967 46.621 23.97V27H44.911V21.42H46.621V22.16C46.7943 21.9133 47.0277 21.72 47.321 21.58C47.6143 21.4333 47.9443 21.36 48.311 21.36ZM51.3093 24.2C51.3093 23.6267 51.416 23.1233 51.6293 22.69C51.8493 22.2567 52.146 21.9233 52.5193 21.69C52.8926 21.4567 53.3093 21.34 53.7693 21.34C54.136 21.34 54.4693 21.4167 54.7693 21.57C55.076 21.7233 55.316 21.93 55.4893 22.19V19.6H57.1993V27H55.4893V26.2C55.3293 26.4667 55.0993 26.68 54.7993 26.84C54.506 27 54.1626 27.08 53.7693 27.08C53.3093 27.08 52.8926 26.9633 52.5193 26.73C52.146 26.49 51.8493 26.1533 51.6293 25.72C51.416 25.28 51.3093 24.7733 51.3093 24.2ZM55.4893 24.21C55.4893 23.7833 55.3693 23.4467 55.1293 23.2C54.896 22.9533 54.6093 22.83 54.2693 22.83C53.9293 22.83 53.6393 22.9533 53.3993 23.2C53.166 23.44 53.0493 23.7733 53.0493 24.2C53.0493 24.6267 53.166 24.9667 53.3993 25.22C53.6393 25.4667 53.9293 25.59 54.2693 25.59C54.6093 25.59 54.896 25.4667 55.1293 25.22C55.3693 24.9733 55.4893 24.6367 55.4893 24.21ZM60.1464 22.35C60.3464 22.0433 60.5964 21.8033 60.8964 21.63C61.1964 21.45 61.5297 21.36 61.8964 21.36V23.17H61.4264C60.9997 23.17 60.6797 23.2633 60.4664 23.45C60.2531 23.63 60.1464 23.95 60.1464 24.41V27H58.4364V21.42H60.1464V22.35ZM68.4138 21.42L64.9138 29.65H63.0738L64.3538 26.81L62.0837 21.42H63.9938L65.2838 24.91L66.5638 21.42H68.4138ZM70.7421 25.68H72.9821V27H69.0321V19.98H70.7421V25.68ZM74.6577 20.84C74.3577 20.84 74.1111 20.7533 73.9177 20.58C73.7311 20.4 73.6377 20.18 73.6377 19.92C73.6377 19.6533 73.7311 19.4333 73.9177 19.26C74.1111 19.08 74.3577 18.99 74.6577 18.99C74.9511 18.99 75.1911 19.08 75.3777 19.26C75.5711 19.4333 75.6677 19.6533 75.6677 19.92C75.6677 20.18 75.5711 20.4 75.3777 20.58C75.1911 20.7533 74.9511 20.84 74.6577 20.84ZM75.5077 21.42V27H73.7977V21.42H75.5077ZM80.147 21.36C80.8003 21.36 81.3203 21.5733 81.707 22C82.1003 22.42 82.297 23 82.297 23.74V27H80.597V23.97C80.597 23.5967 80.5003 23.3067 80.307 23.1C80.1136 22.8933 79.8536 22.79 79.527 22.79C79.2003 22.79 78.9403 22.8933 78.747 23.1C78.5536 23.3067 78.457 23.5967 78.457 23.97V27H76.747V21.42H78.457V22.16C78.6303 21.9133 78.8636 21.72 79.157 21.58C79.4503 21.4333 79.7803 21.36 80.147 21.36ZM86.8952 27L85.1952 24.66V27H83.4852V19.6H85.1952V23.69L86.8852 21.42H88.9952L86.6752 24.22L89.0152 27H86.8952Z" fill="#FDFCFF"/>
</svg>
