<svg width="54" height="54" viewBox="0 0 54 54" fill="none" xmlns="http://www.w3.org/2000/svg">
<rect x="3.80933" y="42.251" width="45.7143" height="7.27284" rx="3.63642" fill="white" stroke="#08050D"/>
<rect x="-0.405953" y="0.578651" width="11.383" height="3.96502" rx="1.64286" transform="matrix(0.173121 0.984901 -0.985027 0.172401 40.8786 15.3494)" fill="white" stroke="#08050D"/>
<rect x="22.5105" y="14.1989" width="21.1039" height="4.8702" rx="2.4351" fill="white" stroke="#08050D"/>
<path d="M9.36259 29.3423C10.3742 26.493 13.0702 24.5892 16.0938 24.5892H43.387C44.8533 24.5892 46.0816 25.6992 46.2296 27.158L47.1785 36.5137C47.3208 37.9165 46.2197 39.1349 44.8097 39.1349H7.90909C6.92233 39.1349 6.23271 38.1583 6.56285 37.2284L9.36259 29.3423Z" fill="white" stroke="#08050D"/>
<ellipse cx="24.1339" cy="31.4077" rx="1.62338" ry="1.6234" fill="#08050D"/>
<ellipse cx="30.6278" cy="31.4077" rx="1.62338" ry="1.6234" fill="#08050D"/>
<ellipse cx="37.1204" cy="31.4077" rx="1.62338" ry="1.6234" fill="#08050D"/>
<path d="M19.8888 18.3548C19.8888 20.3764 18.2594 22.0107 16.2548 22.0107C14.2503 22.0107 12.6208 20.3764 12.6208 18.3548C12.6208 16.3332 14.2503 14.6989 16.2548 14.6989C18.2594 14.6989 19.8888 16.3332 19.8888 18.3548Z" fill="white" stroke="#08050D"/>
<path d="M13.6453 9.00446C13.6453 11.5999 11.5531 13.6993 8.97779 13.6993C6.4025 13.6993 4.3103 11.5999 4.3103 9.00446C4.3103 6.40905 6.4025 4.30957 8.97779 4.30957C11.5531 4.30957 13.6453 6.40905 13.6453 9.00446Z" fill="white" stroke="#08050D"/>
</svg>
