<svg width="38" height="36" viewBox="0 0 38 36" fill="none" xmlns="http://www.w3.org/2000/svg">
<path fill-rule="evenodd" clip-rule="evenodd" d="M8.25056 0C9.1135 0 9.81306 0.699555 9.81306 1.5625V5.03673C15.7042 4.51209 21.6303 4.51209 27.5214 5.03674V1.5625C27.5214 0.699555 28.2209 0 29.0839 0C29.9468 0 30.6464 0.699555 30.6464 1.5625V5.34674C33.7569 5.78655 36.2142 8.24681 36.6302 11.3851L36.8105 12.7454C37.569 18.4669 37.5034 24.2676 36.616 29.9705C36.1764 32.7956 33.8813 34.9655 31.036 35.2461L28.5506 35.4912C21.9776 36.1394 15.3567 36.1394 8.78373 35.4912L6.29831 35.2461C3.45301 34.9655 1.15789 32.7956 0.718287 29.9705C-0.169126 24.2676 -0.234628 18.4669 0.52378 12.7454L0.704095 11.3851C1.12009 8.24677 3.57749 5.78648 6.68806 5.34672V1.5625C6.68806 0.699555 7.38761 0 8.25056 0ZM9.17798 8.23501C15.4888 7.61266 21.8455 7.61266 28.1563 8.23501L30.0427 8.42103C31.8484 8.59911 33.2939 9.99696 33.5323 11.7957L33.7126 13.156C33.7756 13.6313 33.8326 14.1071 33.8836 14.5833H3.45068C3.50169 14.1071 3.55869 13.6313 3.62168 13.156L3.802 11.7957C4.04043 9.99696 5.4859 8.59911 7.29162 8.42103L9.17798 8.23501ZM3.20229 17.7083C2.99774 21.6418 3.19926 25.59 3.80613 29.49C4.02663 30.9071 5.17783 31.9955 6.605 32.1362L9.09042 32.3813C15.4595 33.0094 21.8749 33.0094 28.2439 32.3813L30.7293 32.1362C32.1565 31.9955 33.3077 30.9071 33.5282 29.49C34.1351 25.59 34.3366 21.6418 34.132 17.7083H3.20229Z" fill="black"/>
</svg>
