<svg width="42" height="40" viewBox="0 0 42 40" fill="none" xmlns="http://www.w3.org/2000/svg">
<g opacity="0.8">
<path fill-rule="evenodd" clip-rule="evenodd" d="M16.273 0C11.3445 0 7.3491 3.99537 7.3491 8.9239C7.3491 13.8524 11.3445 17.8478 16.273 17.8478C21.2015 17.8478 25.1969 13.8524 25.1969 8.9239C25.1969 3.99537 21.2015 0 16.273 0ZM10.4987 8.9239C10.4987 5.73485 13.084 3.14961 16.273 3.14961C19.4621 3.14961 22.0473 5.73485 22.0473 8.9239C22.0473 12.113 19.4621 14.6982 16.273 14.6982C13.084 14.6982 10.4987 12.113 10.4987 8.9239Z" fill="black"/>
<path d="M3.14961 28.8715C3.14961 26.2622 5.26481 24.147 7.87403 24.147H8.58977C8.64511 24.147 8.7001 24.1558 8.75271 24.173L10.5701 24.7664C11.9969 25.2323 13.4666 25.5188 14.9461 25.6259C15.2574 25.6485 15.5306 25.4298 15.601 25.1257C15.7597 24.4397 15.9664 23.7721 16.2174 23.1266C16.3282 22.8416 16.12 22.5266 15.8144 22.5174C14.3727 22.4739 12.9358 22.2256 11.5477 21.7723L9.73036 21.1789C9.36211 21.0587 8.97716 20.9974 8.58977 20.9974H7.87403C3.52532 20.9974 0 24.5227 0 28.8715V31.3665C0 32.9481 1.14621 34.2967 2.70714 34.5515C7.23869 35.2913 11.8156 35.658 16.3922 35.6516C16.7115 35.6511 16.9121 35.3061 16.7692 35.0205C16.4608 34.4044 16.1945 33.7636 15.974 33.1019C15.856 32.7479 15.5315 32.4995 15.1585 32.4944C11.1632 32.4394 7.17095 32.089 3.21464 31.443C3.17715 31.4369 3.14961 31.4045 3.14961 31.3665V28.8715Z" fill="black"/>
<path d="M31.4961 25.3018C31.4961 24.4321 30.7911 23.727 29.9213 23.727C29.0516 23.727 28.3465 24.4321 28.3465 25.3018V29.0241C28.3465 29.5279 28.5876 30.0013 28.9951 30.2977L31.0948 31.8248C31.7982 32.3363 32.7831 32.1808 33.2947 31.4774C33.8062 30.774 33.6507 29.7891 32.9473 29.2776L31.4961 28.2221V25.3018Z" fill="black"/>
<path fill-rule="evenodd" clip-rule="evenodd" d="M29.9213 40C36.2994 40 41.4699 34.8295 41.4699 28.4514C41.4699 22.0733 36.2994 16.9028 29.9213 16.9028C23.5432 16.9028 18.3727 22.0733 18.3727 28.4514C18.3727 34.8295 23.5432 40 29.9213 40ZM29.9213 36.8504C34.5599 36.8504 38.3203 33.09 38.3203 28.4514C38.3203 23.8128 34.5599 20.0524 29.9213 20.0524C25.2827 20.0524 21.5224 23.8128 21.5224 28.4514C21.5224 33.09 25.2827 36.8504 29.9213 36.8504Z" fill="black"/>
</g>
</svg>
