<svg width="42" height="29" viewBox="0 0 42 29" fill="none" xmlns="http://www.w3.org/2000/svg">
<path d="M25.4444 16.5556L27.6667 12.1111M3.22222 1H15.28C15.6681 1.00027 16.0493 1.10217 16.3858 1.29555C16.7222 1.48892 17.0022 1.76704 17.1978 2.10222L19.5622 6.15333C20.0165 6.93238 20.6242 7.61115 21.3484 8.14858C22.0726 8.68601 22.8983 9.07091 23.7756 9.28L34.1689 11.7556C36.1137 12.2184 37.8458 13.3233 39.0853 14.8918C40.3248 16.4603 40.9993 18.4008 41 20.4V25.4444C41 26.0338 40.7659 26.599 40.3491 27.0158C39.9324 27.4325 39.3671 27.6667 38.7778 27.6667H3.22222C2.63285 27.6667 2.06762 27.4325 1.65087 27.0158C1.23413 26.599 1 26.0338 1 25.4444V3.22222C1 2.63285 1.23413 2.06762 1.65087 1.65087C2.06762 1.23413 2.63285 1 3.22222 1Z" stroke="black" stroke-width="2" stroke-linecap="round" stroke-linejoin="round"/>
<path d="M12.1111 27.6667V25.4445C12.1111 23.087 11.1746 20.8261 9.50762 19.1591C7.84063 17.4921 5.5797 16.5556 3.22222 16.5556H1M16.5556 14.3334L19.8889 7.66675" stroke="black" stroke-width="2" stroke-linecap="round" stroke-linejoin="round"/>
</svg>
