<svg width="50" height="50" viewBox="0 0 50 50" fill="none" xmlns="http://www.w3.org/2000/svg">
<g opacity="0.8">
<path d="M1.5625 15.625H21.875L23.4375 18.75H3.125L1.5625 15.625ZM3.64583 21.875H23.9583L25.5208 25H5.20833L3.64583 21.875ZM37.5 38.5417C39.2292 38.5417 40.625 37.1459 40.625 35.4167C40.625 33.6875 39.2292 32.2917 37.5 32.2917C35.7708 32.2917 34.375 33.6875 34.375 35.4167C34.375 37.1459 35.7708 38.5417 37.5 38.5417ZM40.625 19.7917H35.4167V25H44.7083L40.625 19.7917ZM16.6667 38.5417C18.3958 38.5417 19.7917 37.1459 19.7917 35.4167C19.7917 33.6875 18.3958 32.2917 16.6667 32.2917C14.9375 32.2917 13.5417 33.6875 13.5417 35.4167C13.5417 37.1459 14.9375 38.5417 16.6667 38.5417ZM41.6667 16.6667L47.9167 25V35.4167H43.75C43.75 38.875 40.9583 41.6667 37.5 41.6667C34.0417 41.6667 31.25 38.875 31.25 35.4167H22.9167C22.9167 38.875 20.1042 41.6667 16.6667 41.6667C13.2083 41.6667 10.4167 38.875 10.4167 35.4167H6.25V28.125H10.4167V31.25H12C13.1458 29.9792 14.8125 29.1667 16.6667 29.1667C18.5208 29.1667 20.1875 29.9792 21.3333 31.25H31.25V12.5H6.25C6.25 10.1875 8.10417 8.33337 10.4167 8.33337H35.4167V16.6667H41.6667Z" fill="black"/>
</g>
</svg>
